<svg xmlns="http://www.w3.org/2000/svg" viewBox="0 0 2003.18 2003.18"><defs><style>.cls-1{fill:#fff;}.cls-2{fill:red;stroke:#fff;stroke-miterlimit:10;stroke-width:1.78px;}</style></defs><title>big logo </title><g id="Layer_2" data-name="Layer 2"><g id="Layer_1-2" data-name="Layer 1"><rect class="cls-1" width="2003.18" height="2003.18"/><path d="M423.85,1491.34l-12.46,34.77h-15.3l41.28-115.9h18.92l43,115.9H483l-12.86-34.77Zm42.31-13.16c-11.05-30.46-17.12-46.65-19.63-55.48h-.17c-2.83,9.83-9.62,29.42-18.52,55.48Z"/><path d="M526.22,1526.11V1483.6a5.94,5.94,0,0,0-.78-3.08l-40.82-70.31h17.57c10.54,18.82,27.33,48.7,32.62,58.9,5-10,22.3-40.16,33.26-58.9H584.5l-42.13,70.56a5.25,5.25,0,0,0-.67,3v42.37Z"/><path d="M693.5,1467.5c0,31.88-17.87,60.28-54.39,60.28-34.11,0-53.15-26.37-53.15-59.62s19.43-59.61,54.5-59.61C673.09,1408.55,693.5,1433.05,693.5,1467.5Zm-91.45.16c0,25,12.82,47,37.74,47,26.91,0,37.62-22.18,37.62-46.94,0-25-12.14-46.08-37.58-46.08C613.56,1421.65,602.05,1442.93,602.05,1467.66Z"/><path d="M731.42,1410.21V1480c0,27.38,15,34.79,29.85,34.79,17.37,0,29.62-8,29.62-34.79v-69.75h15.47v69c0,37.6-20.8,48.4-45.42,48.4-24.17,0-45.1-11.67-45.1-47.31v-70Z"/><path d="M835.29,1410.21h44.48c24.5,0,35.91,12.89,35.91,29,0,13.47-7.74,22.23-16.64,25.25,8.1,2.57,20.45,10.73,20.45,27.76,0,21.84-16.67,33.94-38.64,33.94H835.29Zm41.54,48.2c16.79,0,23.34-6.61,23.34-17.93,0-10.25-7.35-17.57-21-17.57H850.37v35.5Zm-26.46,55H879c14.56,0,24.67-6.84,24.67-21.28,0-12.59-8.08-21-27.61-21H850.37Z"/><path d="M1013.78,1471.93H956.14v41h63.3l-2,13.17H941.07v-115.9h75.47v13.17h-60.4v35.39h57.64Z"/><path d="M1097.32,1491.34l-12.47,34.77h-15.3l41.28-115.9h18.92l43,115.9h-16.38l-12.85-34.77Zm42.3-13.16c-11-30.46-17.12-46.65-19.63-55.48h-.16c-2.83,9.83-9.62,29.42-18.52,55.48Z"/><path d="M1203.5,1475.06v51h-15.24v-115.9h45.29c23.82,0,36.51,12.92,36.51,31,0,15.06-8.65,24.19-19.76,27.26,9.46,2.53,17.69,9.6,17.69,29.71v5c0,8-.37,18.1,1.56,22.95h-14.94c-2.11-5-2-14-2-24.91v-2.47c0-16.5-4.67-23.67-25.45-23.67Zm0-12.93h25.2c17.72,0,25.5-6.66,25.5-19.68,0-12.32-8-19.31-23.77-19.31H1203.5Z"/><path d="M1308.94,1475.06v51H1293.7v-115.9H1339c23.82,0,36.51,12.92,36.51,31,0,15.06-8.65,24.19-19.76,27.26,9.46,2.53,17.69,9.6,17.69,29.71v5c0,8-.37,18.1,1.56,22.95h-14.94c-2.11-5-2-14-2-24.91v-2.47c0-16.5-4.67-23.67-25.45-23.67Zm0-12.93h25.2c17.72,0,25.5-6.66,25.5-19.68,0-12.32-8-19.31-23.77-19.31h-26.93Z"/><path d="M1416.3,1491.34l-12.46,34.77h-15.3l41.28-115.9h18.92l43,115.9h-16.38l-12.86-34.77Zm42.31-13.16c-11-30.46-17.12-46.65-19.63-55.48h-.17c-2.83,9.83-9.62,29.42-18.52,55.48Z"/><path d="M1507.25,1410.21h41.42c32.57,0,54.61,22.21,54.61,56.77,0,34.29-21.48,59.13-55.13,59.13h-40.9Zm15.36,102.85h24.32c27.28,0,40.26-19.53,40.26-45.75,0-22.88-11.83-44-40.2-44h-24.38Z"/><path d="M549.62,1639.26h-1.7c-.19-2.08-.19-5.75-.19-14.71-3.39,11.12-10.37,15.65-21.68,15.65-17.73,0-25.55-14.8-25.55-33.47,0-17.73,8.39-34.23,26.77-34.23,12,0,20.75,5.75,22.92,18.11H548.3c-2.26-10.75-9.62-16.31-21.21-16.31-16.5,0-24.61,14.8-24.61,32.34s7.26,31.77,23.66,31.77c15.09,0,21.59-10.09,21.59-25.08v-5.47H526.05v-1.7h23.57Z"/><path d="M583.28,1606.26v33H581.4v-65.81h20.27c9.71,0,18.2,4.8,18.2,16.4,0,7.55-3.68,14-13.11,15.56,8.3,1.79,12,7,12,16.78v4c0,6.13.38,9.34,1.42,13h-1.89a43.9,43.9,0,0,1-1.41-12.45v-4.43c0-11.79-5.66-16.12-16.78-16.12Zm0-1.7H600c9,0,17.92-2.73,17.92-14.8,0-9.34-6.13-14.62-16.32-14.62H583.28Z"/><path d="M655.32,1613.61l-9.24,25.65h-2l23.95-65.81h2l23.47,65.81h-2.07l-9.15-25.65Zm26.4-1.7C674.17,1590.8,670,1579,669,1575.43h-.1c-.75,3.2-6.88,19.61-12.91,36.48Z"/><path d="M721.13,1573.45h19c12.54,0,19.32,6.69,19.32,16.78,0,11-6.69,17.72-19.32,17.72H723v31.31h-1.89Zm1.89,32.81h16.87c10.94,0,17.63-4.62,17.63-16,0-9-5.84-15.09-17.53-15.09H723Z"/><path d="M787.89,1573.45h1.88v30.07h39.79v-30.07h1.89v65.81h-1.89v-34H789.77v34h-1.88Z"/><path d="M868.41,1573.45v65.81h-1.89v-65.81Z"/><path d="M943.84,1622.85c-3.4,10.84-9.71,17.44-22.63,17.44-17.73,0-25.17-15.74-25.17-33.28,0-18.38,8.2-34.41,25.83-34.41,12.82,0,20,7.45,22,17.54H942c-2.54-9.72-9.43-15.75-20-15.75-15.55,0-23.94,13.67-23.94,32.53,0,16.5,7.16,31.58,23.28,31.58,10.94,0,17.07-5.47,20.56-15.65Z"/><path d="M1006,1573.45h18c18.58,0,29,11.5,29,31.2,0,20.18-8.67,34.61-29.41,34.61H1006Zm1.88,64.11h15.37c18.2,0,27.81-11.79,27.81-32.81,0-18.86-9.9-29.61-27.53-29.61h-15.65Z"/><path d="M1117.05,1605.22h-32.72v32.34H1120l-.38,1.7h-37.15v-65.81h36.4v1.69h-34.51v28.38h32.72Z"/><path d="M1144.58,1622.66c1.41,11.13,9.24,15.75,18.67,15.75,10.94,0,18-5.66,18-15.46,0-8.87-4.44-13.58-17.92-17.54-12.63-3.68-18.29-7.83-18.29-17.07,0-10.18,7.54-15.84,18.1-15.84,12.17,0,17.92,7.17,18.86,16h-1.89c-1.31-9.8-8.2-14.23-17.06-14.23-9.81,0-16,5.27-16,14,0,8.3,5,12,17.07,15.46,15.46,4.43,19.14,10.37,19.14,19.14,0,10.75-7.36,17.35-20.09,17.35-12.91,0-19.23-7.17-20.55-17.54Z"/><path d="M1214.45,1573.45v65.81h-1.89v-65.81Z"/><path d="M1291.19,1639.26h-1.69c-.19-2.08-.19-5.75-.19-14.71-3.39,11.12-10.37,15.65-21.69,15.65-17.72,0-25.55-14.8-25.55-33.47,0-17.73,8.39-34.23,26.78-34.23,12,0,20.74,5.75,22.91,18.11h-1.88c-2.27-10.75-9.62-16.31-21.22-16.31-16.5,0-24.61,14.8-24.61,32.34s7.26,31.77,23.67,31.77c15.08,0,21.59-10.09,21.59-25.08v-5.47h-21.69v-1.7h23.57Z"/><path d="M1323,1639.26v-65.81h2.83c35.54,56.09,37.9,60.06,40.35,63.83h.1c-.28-2.55-.28-20-.28-30.64v-33.19h1.88v65.81h-2.73c-35.92-57-38.19-60.72-40.45-64.3h-.1c.48,8.76.29,18.38.29,30.54v33.76Z"/><path d="M1437.34,1605.22h-32.72v32.34h35.64l-.37,1.7h-37.15v-65.81h36.39v1.69h-34.51v28.38h32.72Z"/><path d="M1469,1606.26v33h-1.88v-65.81h20.27c9.71,0,18.2,4.8,18.2,16.4,0,7.55-3.68,14-13.11,15.56,8.3,1.79,12,7,12,16.78v4c0,6.13.38,9.34,1.42,13H1504a43.9,43.9,0,0,1-1.41-12.45v-4.43c0-11.79-5.66-16.12-16.78-16.12Zm0-1.7h16.69c9,0,17.92-2.73,17.92-14.8,0-9.34-6.13-14.62-16.31-14.62H1469Z"/><polygon id="to_day" data-name="to day" class="cls-2" points="1568.94 1385.26 434.24 1385.26 508.32 1248.68 923.89 482.46 1001.58 339.22 1079.27 482.46 1270.56 835.16 1115.19 835.16 1001.58 625.7 1001.54 625.78 1001.06 624.91 663.61 1247.05 664.57 1247.05 663.68 1248.68 1339.46 1248.68 1263.43 1108.49 894.17 1108.49 968.25 971.91 1344.75 971.91 1418.83 1108.49 1494.86 1248.68 1568.94 1385.26"/></g></g></svg>