<svg xmlns="http://www.w3.org/2000/svg" xmlns:xlink="http://www.w3.org/1999/xlink" viewBox="0 0 3291.34 1270.68"><defs><style>.cls-1{fill:none;}.cls-2{fill:#fc001f;}.cls-3{fill:#9e9e9e;}</style></defs><title>cover web</title><g id="Layer_2" data-name="Layer 2"><g id="Layer_1-2" data-name="Layer 1"><rect class="cls-1" width="3291.34" height="1270.68"/><rect class="cls-1" width="3291.34" height="1270.68"/><image width="1195" height="768" transform="translate(1432.34 85.51) scale(1.53)" xlink:href="../cOVER PHOTO/graphic.jpg"/><path class="cls-2" d="M302.88,370.55H263.3a148.32,148.32,0,0,1-3.71-18.31c-11.38,15-30.91,22.43-58.85,22.43-61.58,0-92.63-46.56-92.63-102.36,0-61.67,35.94-106.61,103-106.61,60.75,0,88.65,34.69,92.29,65.59H245c-2.89-10.67-10.39-24.08-34.18-24.08-33.65,0-41.92,30.9-41.92,63.06,0,31.77,9.6,62.51,42.09,62.51,29.69,0,34.92-21.75,34.92-35v-1.34H209V255.2h93.86Z"/><path class="cls-2" d="M384.88,294.56v76H327.67V169.44h99.65c47.35,0,70.27,25.35,70.27,55.69,0,27.77-16.24,42-30.18,47.7,12.67,4.42,26.21,17.84,26.21,51.89v8.38c0,12.51.4,28.73,2.62,37.45H440.07c-3.4-8.66-4.27-23.25-4.27-43.92v-5.19c0-17.36-4.15-26.88-30.15-26.88Zm0-41.07h27.26c19.63,0,26.78-8.16,26.78-21.69s-8.49-21.29-26.5-21.29H384.88Z"/><path class="cls-2" d="M564.48,331.43l-11.65,39.12h-57.4L559,169.44h76.28l66.07,201.11H639.8l-12.21-39.12Zm52.77-43.67c-9.44-31.6-17.18-59.69-21.73-79.3h-.81c-4.65,21.67-12.34,50.36-20.5,79.3Z"/><path class="cls-2" d="M702,169.44h93.19c45.36,0,75.88,25.25,75.88,64.51,0,45.19-34.68,66-77.26,66H760.18v70.63H702Zm58.18,89h24c16.66,0,28.5-6.94,28.5-23.72,0-17.19-11.93-23.9-28.34-23.9H760.18Z"/><path class="cls-2" d="M879.54,169.44h59.1v75.24H1000V169.44h59.2V370.55H1000V288.36H938.64v82.19h-59.1Z"/><path class="cls-2" d="M1153,169.44V370.55h-59.1V169.44Z"/><path class="cls-2" d="M1349,304.4c-7.38,42-38.23,69.89-93.42,69.89-65.87,0-97.69-44.46-97.69-102.82,0-56.93,31.45-105.77,100.54-105.77,59.1,0,86,34.36,90,69.17h-58.49c-2.68-14.53-11.07-27.76-32.84-27.76-28.64,0-38.41,27.19-38.41,62.3,0,31.88,8.13,63.37,39.07,63.37,23.43,0,30-17,32.49-28.38Z"/><path class="cls-2" d="M117.14,519.84h86.39c64,0,101.13,40.49,101.13,98.34S268.5,721,202.61,721H117.14Zm59,158.43h22.58c32,0,45.09-22.43,45.09-60.09,0-33.3-12.23-55.66-44.39-55.66H176.13Z"/><path class="cls-2" d="M473.07,639.56H381.46v37.71H483.72L477.14,721H324.75V519.84H477v43.67H381.46v32.38h91.61Z"/><path class="cls-2" d="M540.89,660c3.36,17.53,15.63,24.9,34.66,24.9,17.83,0,26-6.24,26-17.91,0-13.22-8.91-18.23-40.68-25.82-59.33-14.37-71.15-36-71.15-63.1,0-33.74,24.79-62,80.77-62,58.19,0,82,29.52,84.77,61.24H598.37c-1.54-10.79-7.08-21.77-28-21.77-13.5,0-21.79,5.09-21.79,16S556,586.67,587,594.28c62,15.47,74.28,37.79,74.28,66.39,0,37.78-29.13,64-88.17,64-55.62,0-85.09-26-89.54-64.65Z"/><path class="cls-2" d="M728.4,519.84V721H669.3V519.84Z"/><path class="cls-2" d="M928.05,721H888.46a150.19,150.19,0,0,1-3.71-18.31c-11.37,15-30.9,22.43-58.84,22.43-61.58,0-92.63-46.56-92.63-102.36,0-61.67,35.93-106.61,103-106.61,60.75,0,88.64,34.69,92.29,65.59H870.15C867.26,571,859.76,557.61,836,557.61c-33.64,0-41.92,30.9-41.92,63.06,0,31.77,9.6,62.51,42.1,62.51,29.69,0,34.91-21.75,34.91-35v-1.34H834.19V605.6h93.86Z"/><path class="cls-2" d="M952.83,721V519.84h70.52c21.16,45.29,51.79,106.49,60.25,131.26h1c-2.23-20.88-2.75-56.41-2.75-88.48V519.84h53.71V721h-67.19c-17-36.41-53.44-111.87-62.89-138.41h-.78c1.87,18.91,2,57.84,2,93.24V721Z"/><path class="cls-2" d="M1319,639.56h-91.61v37.71h102.26L1323.05,721H1170.66V519.84h152.2v43.67h-95.49v32.38H1319Z"/><path class="cls-2" d="M1398.11,645v76h-57.22V519.84h99.65c47.36,0,70.28,25.35,70.28,55.69,0,27.77-16.24,42-30.19,47.7,12.68,4.42,26.22,17.84,26.22,51.89v8.38c0,12.51.4,28.73,2.61,37.45H1453.3c-3.4-8.66-4.28-23.25-4.28-43.92v-5.19c0-17.36-4.14-26.88-30.14-26.88Zm0-41.07h27.26c19.63,0,26.78-8.16,26.78-21.69s-8.49-21.29-26.51-21.29h-27.53Z"/><path class="cls-3" d="M125.41,822.44H96.52V816h65v6.46h-29v87.9h-7.07Z"/><path class="cls-3" d="M181.57,816h6.93v41.25h50.1V816h7.06v94.36H238.6V863.69H188.5v46.65h-6.93Z"/><path class="cls-3" d="M331.63,863.82H288.31V904h47.54l-1.11,6.33H281.39V816H333.8v6.33H288.31v35.05h43.32Z"/><path class="cls-3" d="M396,816h52v6.33H403v35.9h42.22v6.32H403v45.81H396Z"/><path class="cls-3" d="M477.49,816v94.36h-6.93V816Z"/><path class="cls-3" d="M513,864.93v45.41h-7.06V816h30.23c16,0,27,7.91,27,23.56,0,14.12-8.93,20.1-16,22C557.31,864.44,562,872.45,562,886v1.25c0,9,0,17.38,1.36,23.08h-7.18c-1.23-3.68-1.5-13.93-1.5-22.69v-1.52c0-15-5.41-21.2-23-21.2Zm0-6.18h19.33c14.3,0,23.38-4.18,23.38-19.17,0-11-7.06-17.42-20.53-17.42H513Z"/><path class="cls-3" d="M591.61,884.46c2.16,14.55,12.13,20.66,24,20.66,11.67,0,21.47-6.48,21.47-19.4,0-11.63-4.77-16.62-23.16-22.56s-26-11.74-26-25.21,9.61-23.19,26.9-23.19c18.84,0,26.9,12.09,27.85,24.26h-7c-1.63-11.33-8.48-18-21.21-18s-19,6.34-19,16.32,5,14.43,21.28,19.44c22.74,7.07,27.93,15.52,27.93,28.19,0,15.89-11.26,26.29-29.22,26.29-18.94,0-29.34-10.6-30.83-26.84Z"/><path class="cls-3" d="M688.17,822.44H659.28V816h65v6.46h-29v87.9h-7.07Z"/><path class="cls-3" d="M780,884.46c2.16,14.55,12.12,20.66,24,20.66,11.67,0,21.46-6.48,21.46-19.4,0-11.63-4.76-16.62-23.15-22.56s-26-11.74-26-25.21,9.61-23.19,26.89-23.19c18.85,0,26.91,12.09,27.86,24.26H824c-1.62-11.33-8.48-18-21.2-18s-19,6.34-19,16.32,5,14.43,21.28,19.44C827.76,863.89,833,872.34,833,885c0,15.89-11.26,26.29-29.22,26.29-18.93,0-29.33-10.6-30.82-26.84Z"/><path class="cls-3" d="M910.3,863.82H867V904h47.54l-1.11,6.33H860.06V816h52.41v6.33H867v35.05H910.3Z"/><path class="cls-3" d="M960.85,822.44H932V816h65v6.46h-29v87.9h-7.06Z"/><path class="cls-3" d="M1017,816h29.75c17.41,0,28.79,9.11,28.79,24.82,0,17.85-12.15,26.31-30.29,26.31h-21.18v43.23H1017Zm7.07,44.82h21.16c13.52,0,23-4.47,23-19.86,0-12.71-9.32-18.78-23.09-18.78h-21Z"/><path class="cls-3" d="M116.86,1040.86l-10.79,32.68H98.88c10-29.75,20.68-60.61,31.89-94.36h8.52l33.11,94.36h-7.75l-10.93-32.68Zm34.65-6.46c-9.31-27.55-15-42-16.63-48.65h-.26c-2.85,11.53-8.13,26-15.68,48.65Z"/><path class="cls-3" d="M230.93,979.18h29.75c17.41,0,28.79,9.11,28.79,24.82,0,17.85-12.15,26.32-30.29,26.32H238v43.22h-7.07ZM238,1024h21.16c13.52,0,23-4.47,23-19.86,0-12.71-9.32-18.78-23.09-18.78H238Z"/><path class="cls-3" d="M320.68,1028.13v45.41h-7.06V979.18h30.23c15.95,0,27,7.91,27,23.56,0,14.12-8.93,20.1-16,22,10.18,2.87,14.91,10.88,14.91,24.44v1.25c0,9,0,17.38,1.36,23.08h-7.18c-1.23-3.68-1.5-13.93-1.5-22.69v-1.52c0-15-5.41-21.2-23-21.2Zm0-6.18H340c14.3,0,23.38-4.18,23.38-19.17,0-11-7.06-17.42-20.53-17.42H320.68Z"/><path class="cls-3" d="M470.2,1025.68c0,27.06-12.26,49.22-38.57,49.22-24.18,0-37.75-19.77-37.75-49,0-25.65,12.91-48.13,38.71-48.13C457,977.82,470.2,997.33,470.2,1025.68Zm-69-.13c0,24.22,9.87,42.9,30.95,42.9,21.24,0,30.94-18.93,30.94-42.63,0-24.19-10.1-41.55-30.69-41.55C411,984.27,401.23,1002.94,401.23,1025.55Z"/><path class="cls-3" d="M499.94,979.18h52v6.33H506.86v35.9h42.22v6.32H506.86v45.81h-6.92Z"/><path class="cls-3" d="M624.71,1027H581.39v40.19h47.54l-1.12,6.33H574.47V979.18h52.4v6.33H581.39v35h43.32Z"/><path class="cls-3" d="M654.85,1047.66c2.16,14.55,12.13,20.66,24,20.66,11.67,0,21.47-6.48,21.47-19.4,0-11.63-4.77-16.62-23.16-22.56s-26-11.74-26-25.21S660.78,978,678.07,978c18.84,0,26.9,12.09,27.85,24.26h-7c-1.63-11.33-8.48-18-21.21-18s-19,6.34-19,16.32,5,14.43,21.28,19.44c22.74,7.07,27.93,15.52,27.93,28.19,0,15.89-11.26,26.29-29.22,26.29-18.94,0-29.34-10.6-30.83-26.84Z"/><path class="cls-3" d="M735.36,1047.66c2.16,14.55,12.13,20.66,24,20.66,11.67,0,21.47-6.48,21.47-19.4,0-11.63-4.77-16.62-23.16-22.56s-26-11.74-26-25.21S741.29,978,758.58,978c18.84,0,26.9,12.09,27.85,24.26h-7.06c-1.62-11.33-8.47-18-21.2-18s-19,6.34-19,16.32,5,14.43,21.28,19.44c22.74,7.07,27.93,15.52,27.93,28.19,0,15.89-11.27,26.29-29.22,26.29-18.94,0-29.34-10.6-30.83-26.84Z"/><path class="cls-3" d="M822.38,979.18v94.36h-6.93V979.18Z"/><path class="cls-3" d="M920.62,1025.68c0,27.06-12.25,49.22-38.57,49.22-24.17,0-37.75-19.77-37.75-49,0-25.65,12.92-48.13,38.71-48.13C907.44,977.82,920.62,997.33,920.62,1025.68Zm-69-.13c0,24.22,9.87,42.9,31,42.9,21.24,0,30.95-18.93,30.95-42.63,0-24.19-10.11-41.55-30.69-41.55C861.37,984.27,851.65,1002.94,851.65,1025.55Z"/><path class="cls-3" d="M950.36,1073.54V979.18h9.84c43.71,72.94,49.13,81.79,51,85.75h.14c-.82-13.41-1-28.51-1-43.74v-42h7v94.36h-8.62C962.14,995.15,959.4,990.2,957,986h-.14c.68,12.36.42,27.88.42,44.87v42.67Z"/><path class="cls-3" d="M1059.33,1040.86l-10.79,32.68h-7.19c10-29.75,20.68-60.61,31.88-94.36h8.52l33.11,94.36h-7.75l-10.93-32.68Zm34.64-6.46c-9.3-27.55-15-42-16.62-48.65h-.27c-2.84,11.53-8.12,26-15.68,48.65Z"/><path class="cls-3" d="M1138,979.18H1145v88h47.47l-1.37,6.33h-53Z"/><path class="cls-3" d="M1247.38,979.18h6.93v88h47.47l-1.37,6.33h-53Z"/><path class="cls-3" d="M1388.86,1025.68c0,27.06-12.25,49.22-38.57,49.22-24.17,0-37.75-19.77-37.75-49,0-25.65,12.92-48.13,38.71-48.13C1375.68,977.82,1388.86,997.33,1388.86,1025.68Zm-69-.13c0,24.22,9.87,42.9,30.95,42.9,21.24,0,31-18.93,31-42.63,0-24.19-10.11-41.55-30.69-41.55C1329.61,984.27,1319.89,1002.94,1319.89,1025.55Z"/><path class="cls-3" d="M1489.77,1025.68c0,27.06-12.25,49.22-38.57,49.22-24.17,0-37.74-19.77-37.74-49,0-25.65,12.91-48.13,38.7-48.13C1476.59,977.82,1489.77,997.33,1489.77,1025.68Zm-69-.13c0,24.22,9.87,42.9,31,42.9,21.24,0,31-18.93,31-42.63,0-24.19-10.11-41.55-30.69-41.55C1430.52,984.27,1420.8,1002.94,1420.8,1025.55Z"/><path class="cls-3" d="M1519.51,979.18h6.93v49.89c10.86-11.31,33.11-34.72,47.16-49.89h8.61l-37.28,39.67,39.45,54.69h-8.61l-35.78-49.9L1526.44,1037v36.59h-6.93Z"/></g></g></svg>