<svg id="Layer_1" data-name="Layer 1" xmlns="http://www.w3.org/2000/svg" xmlns:xlink="http://www.w3.org/1999/xlink" viewBox="0 0 6560 2496"><defs><style>.cls-1{fill:none;}.cls-2{clip-path:url(#clip-path);}.cls-3{fill:#fff;}.cls-4,.cls-5,.cls-6{fill:red;}.cls-5,.cls-6{stroke:#fff;stroke-miterlimit:10;}.cls-5{stroke-width:0.93px;}.cls-7{font-size:200px;}.cls-12,.cls-7{font-family:AgencyFB-Reg, Agency FB;}.cls-8{font-size:169.24px;fill:#6f6e6e;font-family:Rubik-Regular, Rubik Regular;letter-spacing:0.03em;}.cls-9{letter-spacing:0.03em;}.cls-10{letter-spacing:0.03em;}.cls-11{letter-spacing:0.01em;}.cls-12{font-size:149px;}</style><clipPath id="clip-path"><rect class="cls-1" x="-28" y="-28" width="6624.3" height="2557"/></clipPath></defs><title>cover big 2</title><g class="cls-2"><image width="7360" height="4912" transform="translate(-28 -28) scale(0.9)" xlink:href="../../../../../Documents/cOVER PHOTO/pexels-fauxels-3184454.jpg"/><rect class="cls-3" x="-28" y="1233" width="6616" height="1291"/><path class="cls-3" d="M3228.81,1696.2a463.25,463.25,0,1,1,180.88-36.52A461.79,461.79,0,0,1,3228.81,1696.2Z"/><path class="cls-4" d="M3228.81,775.61a454.38,454.38,0,1,1-177.45,35.82,453,453,0,0,1,177.45-35.82m0-17.61c-261.51,0-473.5,212-473.5,473.5s212,473.5,473.5,473.5,473.5-212,473.5-473.5-212-473.5-473.5-473.5Z"/><path d="M2925.19,1432l-6.56,18.27h-8l21.69-60.91h9.94l22.62,60.91h-8.6l-6.76-18.27Zm22.23-6.92c-5.81-16-9-24.51-10.32-29.15H2937c-1.49,5.16-5.06,15.46-9.74,29.15Z"/><path d="M2979,1450.26v-22.34a3.12,3.12,0,0,0-.42-1.62l-21.45-37h9.24c5.54,9.89,14.36,25.6,17.14,31,2.62-5.26,11.72-21.1,17.48-31h8.63l-22.14,37.08a2.79,2.79,0,0,0-.35,1.56v22.27Z"/><path d="M3066.89,1419.46c0,16.75-9.39,31.67-28.58,31.67-17.92,0-27.93-13.85-27.93-31.32s10.21-31.33,28.64-31.33C3056.17,1388.48,3066.89,1401.36,3066.89,1419.46Zm-48,.08c0,13.17,6.73,24.71,19.83,24.71,14.14,0,19.77-11.66,19.77-24.67s-6.38-24.21-19.75-24.21C3024.88,1395.37,3018.84,1406.55,3018.84,1419.54Z"/><path d="M3086.82,1389.35V1426c0,14.4,7.89,18.29,15.69,18.29,9.13,0,15.56-4.2,15.56-18.29v-36.65h8.14v36.24c0,19.76-10.93,25.43-23.88,25.43-12.7,0-23.7-6.13-23.7-24.86v-36.81Z"/><path d="M3141.41,1389.35h23.38c12.87,0,18.87,6.78,18.87,15.21,0,7.08-4.07,11.69-8.75,13.27a15,15,0,0,1,10.75,14.59c0,11.48-8.76,17.84-20.31,17.84h-23.94Zm21.83,25.33c8.83,0,12.26-3.47,12.26-9.42,0-5.39-3.86-9.24-11-9.24h-15.15v18.66Zm-13.9,28.91h15c7.65,0,13-3.59,13-11.19,0-6.61-4.25-11.05-14.52-11.05h-13.49Z"/><path d="M3235.21,1421.79h-30.29v21.55h33.27l-1,6.92H3197v-60.91h39.66v6.92h-31.74v18.6h30.29Z"/><path d="M3279.11,1432l-6.55,18.27h-8l21.7-60.91h9.94l22.62,60.91h-8.6l-6.76-18.27Zm22.24-6.92c-5.81-16-9-24.51-10.32-29.15H3291c-1.49,5.16-5.06,15.46-9.74,29.15Z"/><path d="M3334.92,1423.43v26.83h-8v-60.91h23.8c12.52,0,19.19,6.79,19.19,16.3,0,7.91-4.55,12.71-10.39,14.32,5,1.33,9.3,5,9.3,15.62v2.61c0,4.2-.2,9.51.82,12.06h-7.85c-1.11-2.63-1-7.37-1-13.09v-1.3c0-8.67-2.46-12.44-13.38-12.44Zm0-6.79h13.24c9.31,0,13.4-3.5,13.4-10.35,0-6.47-4.22-10.14-12.49-10.14h-14.15Z"/><path d="M3390.33,1423.43v26.83h-8v-60.91h23.8c12.52,0,19.19,6.79,19.19,16.3,0,7.91-4.55,12.71-10.39,14.32,5,1.33,9.3,5,9.3,15.62v2.61c0,4.2-.19,9.51.82,12.06h-7.85c-1.11-2.63-1-7.37-1-13.09v-1.3c0-8.67-2.45-12.44-13.38-12.44Zm0-6.79h13.24c9.31,0,13.41-3.5,13.41-10.35,0-6.47-4.22-10.14-12.5-10.14h-14.15Z"/><path d="M3446.75,1432l-6.55,18.27h-8l21.69-60.91h10l22.62,60.91h-8.6l-6.76-18.27Zm22.24-6.92c-5.81-16-9-24.51-10.32-29.15h-.09c-1.48,5.16-5,15.46-9.73,29.15Z"/><path d="M3494.55,1389.35h21.76c17.12,0,28.7,11.67,28.7,29.84,0,18-11.28,31.07-29,31.07h-21.49Zm8.07,54.05h12.78c14.34,0,21.16-10.26,21.16-24,0-12-6.22-23.15-21.13-23.15h-12.81Z"/><path d="M2991.28,1509.72h-.89c-.1-1.09-.1-3-.1-7.73-1.78,5.85-5.45,8.23-11.4,8.23-9.31,0-13.42-7.78-13.42-17.59,0-9.32,4.41-18,14.07-18,6.29,0,10.9,3,12,9.52h-1c-1.19-5.65-5.06-8.58-11.15-8.58-8.67,0-12.93,7.78-12.93,17s3.81,16.7,12.43,16.7c7.93,0,11.35-5.31,11.35-13.18v-2.88h-11.4v-.89h12.39Z"/><path d="M3009,1492.38v17.34h-1v-34.58h10.65c5.11,0,9.57,2.53,9.57,8.62,0,4-1.94,7.33-6.89,8.17,4.36,1,6.29,3.67,6.29,8.82v2.13a22.69,22.69,0,0,0,.75,6.84h-1a23.17,23.17,0,0,1-.74-6.54v-2.33c0-6.19-3-8.47-8.82-8.47Zm0-.89h8.77c4.71,0,9.42-1.44,9.42-7.78,0-4.9-3.22-7.68-8.58-7.68H3009Z"/><path d="M3046.83,1496.25l-4.86,13.47h-1l12.59-34.58h1l12.34,34.58h-1.09l-4.81-13.47Zm13.87-.9c-4-11.09-6.14-17.29-6.69-19.17H3054c-.39,1.68-3.61,10.31-6.78,19.17Z"/><path d="M3081.42,1475.14h10c6.59,0,10.16,3.52,10.16,8.82,0,5.79-3.52,9.31-10.16,9.31h-9v16.45h-1Zm1,17.24h8.87c5.74,0,9.26-2.43,9.26-8.42,0-4.71-3.07-7.93-9.21-7.93h-8.92Z"/><path d="M3116.5,1475.14h1v15.8h20.91v-15.8h1v34.58h-1v-17.88h-20.91v17.88h-1Z"/><path d="M3158.82,1475.14v34.58h-1v-34.58Z"/><path d="M3198.46,1501.1c-1.79,5.7-5.11,9.17-11.9,9.17-9.31,0-13.22-8.28-13.22-17.49,0-9.66,4.31-18.09,13.57-18.09,6.74,0,10.5,3.92,11.55,9.22h-1c-1.33-5.1-4.95-8.28-10.5-8.28-8.17,0-12.58,7.19-12.58,17.1,0,8.67,3.76,16.6,12.23,16.6,5.75,0,9-2.88,10.8-8.23Z"/><path d="M3231.11,1475.14h9.47c9.76,0,15.26,6,15.26,16.4,0,10.6-4.56,18.18-15.46,18.18h-9.27Zm1,33.69h8.08c9.56,0,14.61-6.19,14.61-17.24,0-9.91-5.2-15.56-14.46-15.56h-8.23Z"/><path d="M3289.48,1491.84h-17.19v17H3291l-.2.89H3271.3v-34.58h19.12v.89h-18.13v14.91h17.19Z"/><path d="M3304,1501c.75,5.85,4.86,8.28,9.81,8.28,5.75,0,9.47-3,9.47-8.13,0-4.66-2.33-7.13-9.42-9.22-6.64-1.93-9.61-4.11-9.61-9,0-5.35,4-8.33,9.51-8.33,6.4,0,9.42,3.77,9.91,8.43h-1c-.69-5.16-4.31-7.49-9-7.49-5.15,0-8.42,2.78-8.42,7.34,0,4.36,2.63,6.29,9,8.12,8.12,2.33,10.06,5.45,10.06,10.06,0,5.65-3.87,9.12-10.56,9.12s-10.1-3.77-10.8-9.22Z"/><path d="M3340.67,1475.14v34.58h-1v-34.58Z"/><path d="M3381,1509.72h-.89c-.1-1.09-.1-3-.1-7.73-1.78,5.85-5.45,8.23-11.39,8.23-9.32,0-13.43-7.78-13.43-17.59,0-9.32,4.41-18,14.07-18,6.29,0,10.9,3,12,9.52h-1c-1.19-5.65-5-8.58-11.15-8.58-8.67,0-12.93,7.78-12.93,17s3.82,16.7,12.44,16.7c7.92,0,11.34-5.31,11.34-13.18v-2.88h-11.39v-.89H3381Z"/><path d="M3397.71,1509.72v-34.58h1.48c18.68,29.48,19.92,31.56,21.21,33.54h0c-.15-1.34-.15-10.5-.15-16.1v-17.44h1v34.58h-1.44c-18.87-29.92-20.06-31.91-21.25-33.79h0c.24,4.61.15,9.66.15,16v17.74Z"/><path d="M3457.81,1491.84h-17.19v17h18.72l-.19.89h-19.52v-34.58h19.12v.89h-18.13v14.91h17.19Z"/><path d="M3474.46,1492.38v17.34h-1v-34.58h10.65c5.1,0,9.56,2.53,9.56,8.62,0,4-1.93,7.33-6.88,8.17,4.36,1,6.29,3.67,6.29,8.82v2.13a23.07,23.07,0,0,0,.74,6.84h-1a23.17,23.17,0,0,1-.74-6.54v-2.33c0-6.19-3-8.47-8.82-8.47Zm0-.89h8.77c4.71,0,9.41-1.44,9.41-7.78,0-4.9-3.22-7.68-8.57-7.68h-9.61Z"/><polygon id="to_day" data-name="to day" class="cls-5" points="3526.97 1376.24 2930.65 1376.24 2969.58 1304.46 3187.97 901.78 3228.8 826.51 3269.63 901.78 3370.16 1087.14 3288.51 1087.14 3228.8 977.06 3228.78 977.11 3228.53 976.65 3051.19 1303.6 3051.69 1303.6 3051.22 1304.46 3406.37 1304.46 3366.41 1230.79 3172.36 1230.79 3211.29 1159.01 3409.15 1159.01 3448.08 1230.79 3488.04 1304.46 3526.97 1376.24"/><rect class="cls-6" x="356.18" y="975.52" width="64" height="2256" transform="translate(-1314.97 809.4) rotate(-42.32)"/><rect class="cls-6" x="184.71" y="1131.63" width="64" height="2256" transform="translate(-1464.74 734.64) rotate(-42.32)"/><rect class="cls-6" x="6145.18" y="975.52" width="64" height="2256" transform="translate(9328.77 7817.51) rotate(-137.68)"/><rect class="cls-6" x="6316.65" y="1131.63" width="64" height="2256" transform="translate(9521.94 8204.49) rotate(-137.68)"/><text class="cls-7" transform="translate(2343 1948.5)">REQUEST YOUR <tspan class="cls-6" x="976.56" y="0">DESIGN</tspan><tspan x="1431.64" y="0" xml:space="preserve"> NOW</tspan></text><text class="cls-8" transform="translate(-1410.82 2415.72) scale(0.95 1)"><tspan xml:space="preserve">.   </tspan><tspan x="0" y="344.12">+901 224 568</tspan><tspan x="0" y="688.24">B</tspan><tspan class="cls-9" x="96.8" y="688.24">R</tspan><tspan class="cls-10" x="193.78" y="688.24">ADLEE@BUSINESS.</tspan><tspan class="cls-11" x="1578.98" y="688.24">C</tspan><tspan x="1678.67" y="688.24">OM</tspan></text><path class="cls-6" d="M4299,2247.09a59.89,59.89,0,0,0-59.83,59.86c0,28.47,59.83,100.33,59.83,100.33s59.83-71.86,59.83-100.33A59.89,59.89,0,0,0,4299,2247.09Zm0,92.2a32.28,32.28,0,1,1,32.24-32.34A32.26,32.26,0,0,1,4299,2339.29Z"/><text class="cls-12" transform="translate(4393 2377.98)">Marrakech, 4000</text><path class="cls-6" d="M2560,2273.63h-124a18.71,18.71,0,0,0-18.69,18.66v69.84a18.68,18.68,0,0,0,18.69,18.61h124a18.71,18.71,0,0,0,18.69-18.61v-69.84A18.73,18.73,0,0,0,2560,2273.63Zm9.42,28.11-68.82,43.11a4.5,4.5,0,0,1-2.63.63,4.66,4.66,0,0,1-2.63-.63l-68-43.11a5.81,5.81,0,0,1-2.74-3.47,5.41,5.41,0,0,1,.43-4.25,5.59,5.59,0,0,1,5-2.94,5.67,5.67,0,0,1,2.69.71l65.27,41.74,66.16-41.74a5.64,5.64,0,0,1,5.29,9.95Z"/><text class="cls-12" transform="translate(2614.65 2377.98)">ayoube.designer@gmail.com</text><path class="cls-4" d="M1256.35,2250.38V2404h97.36V2250.38Zm48.7,140.57a9.15,9.15,0,1,1,9.1-9.09A9.13,9.13,0,0,1,1305.05,2391Zm33-29.53H1272v-91.31h66.06Z"/><text class="cls-12" transform="translate(1385 2377.98)">+212 633427041</text></g></svg>