<svg xmlns="http://www.w3.org/2000/svg" viewBox="0 0 1264.73 1363.09"><defs><style>.cls-1{fill:#fff;}</style></defs><title>logo graphic whait</title><g id="Layer_2" data-name="Layer 2"><g id="Layer_1-2" data-name="Layer 1"><path d="M32.57,1207l-13.06,36.43h-16l43.24-121.42H66.55l45.1,121.42H94.5L81,1207Zm44.33-13.79c-11.58-31.91-17.94-48.87-20.57-58.12h-.17c-3,10.3-10.08,30.83-19.41,58.12Z" transform="translate(-3.49)"/><path d="M139.82,1243.47v-44.54a6.23,6.23,0,0,0-.82-3.23l-42.76-73.65h18.41c11,19.71,28.62,51,34.17,61.7,5.23-10.5,23.36-42.07,34.84-61.7h17.21L156.74,1196a5.47,5.47,0,0,0-.7,3.11v44.39Z" transform="translate(-3.49)"/><path d="M315.07,1182.07c0,33.39-18.72,63.14-57,63.14-35.74,0-55.68-27.62-55.68-62.45s20.36-62.46,57.09-62.46C293.69,1120.3,315.07,1146,315.07,1182.07Zm-95.8.16c0,26.25,13.43,49.25,39.53,49.25,28.19,0,39.41-23.23,39.41-49.17,0-26.16-12.72-48.28-39.37-48.28C231.32,1134,219.27,1156.33,219.27,1182.23Z" transform="translate(-3.49)"/><path d="M354.8,1122.05v73.06c0,28.69,15.73,36.45,31.27,36.45,18.2,0,31-8.36,31-36.45v-73.06h16.21v72.23c0,39.4-21.79,50.71-47.59,50.71-25.32,0-47.25-12.23-47.25-49.57v-73.37Z" transform="translate(-3.49)"/><path d="M463.62,1122.05h46.6c25.67,0,37.62,13.5,37.62,30.32,0,14.12-8.11,23.29-17.43,26.46,8.48,2.69,21.42,11.24,21.42,29.08,0,22.88-17.46,35.56-40.48,35.56H463.62Zm43.52,50.49c17.59,0,24.45-6.93,24.45-18.78,0-10.74-7.7-18.41-22-18.41H479.42v37.19Zm-27.72,57.63h30c15.26,0,25.85-7.16,25.85-22.3,0-13.18-8.46-22-28.93-22H479.42Z" transform="translate(-3.49)"/><path d="M650.61,1186.71H590.23v43h66.32l-2.08,13.8h-80V1122.05h79.07v13.79H590.23v37.08h60.38Z" transform="translate(-3.49)"/><path d="M738.14,1207l-13.06,36.43h-16l43.24-121.42h19.83l45.1,121.42H800.06L786.59,1207Zm44.32-13.79c-11.57-31.91-17.94-48.87-20.56-58.12h-.18c-3,10.3-10.08,30.83-19.4,58.12Z" transform="translate(-3.49)"/><path d="M849.38,1190v53.49h-16V1122.05h47.45c25,0,38.24,13.53,38.24,32.48,0,15.78-9.06,25.34-20.7,28.56,9.91,2.66,18.54,10.05,18.54,31.13v5.21c0,8.36-.39,19,1.63,24H902.92c-2.2-5.24-2-14.7-2-26.1v-2.59c0-17.28-4.88-24.8-26.66-24.8Zm0-13.54h26.41c18.56,0,26.71-7,26.71-20.62,0-12.91-8.41-20.23-24.9-20.23H849.38Z" transform="translate(-3.49)"/><path d="M959.85,1190v53.49h-16V1122.05h47.45c24.95,0,38.25,13.53,38.25,32.48,0,15.78-9.07,25.34-20.7,28.56,9.91,2.66,18.53,10.05,18.53,31.13v5.21c0,8.36-.39,19,1.63,24h-15.65c-2.21-5.24-2.06-14.7-2.06-26.1v-2.59c0-17.28-4.88-24.8-26.66-24.8Zm0-13.54h26.4c18.56,0,26.72-7,26.72-20.62,0-12.91-8.42-20.23-24.9-20.23H959.85Z" transform="translate(-3.49)"/><path d="M1072.33,1207l-13.06,36.43h-16l43.25-121.42h19.82l45.1,121.42h-17.16L1120.78,1207Zm44.32-13.79c-11.57-31.91-17.93-48.87-20.56-58.12h-.18c-3,10.3-10.08,30.83-19.4,58.12Z" transform="translate(-3.49)"/><path d="M1167.61,1122.05H1211c34.13,0,57.21,23.26,57.21,59.47,0,35.92-22.5,62-57.75,62h-42.85Zm16.1,107.75h25.47c28.58,0,42.18-20.47,42.18-47.94,0-24-12.4-46.14-42.11-46.14h-25.54Z" transform="translate(-3.49)"/><path d="M164.34,1362h-1.78c-.2-2.18-.2-6-.2-15.41-3.55,11.65-10.86,16.39-22.72,16.39-18.57,0-26.77-15.51-26.77-35.06,0-18.58,8.8-35.86,28.06-35.86,12.54,0,21.73,6,24,19h-2c-2.37-11.26-10.08-17.09-22.23-17.09-17.29,0-25.78,15.51-25.78,33.89s7.6,33.29,24.79,33.29c15.81,0,22.62-10.57,22.62-26.28v-5.73H139.64v-1.78h24.7Z" transform="translate(-3.49)"/><path d="M199.6,1327.43V1362h-2v-69h21.24c10.17,0,19.06,5,19.06,17.19,0,7.91-3.85,14.62-13.73,16.3,8.7,1.88,12.55,7.31,12.55,17.59v4.24c0,6.43.39,9.78,1.48,13.64h-2a46.15,46.15,0,0,1-1.48-13v-4.65c0-12.34-5.92-16.89-17.58-16.89Zm0-1.78h17.49c9.38,0,18.77-2.86,18.77-15.51,0-9.78-6.42-15.31-17.09-15.31H199.6Z" transform="translate(-3.49)"/><path d="M275.07,1335.14,265.39,1362h-2.07l25.09-69h2.07l24.6,69h-2.17l-9.58-26.87Zm27.66-1.78c-7.9-22.13-12.25-34.48-13.33-38.23h-.1c-.79,3.36-7.21,20.55-13.54,38.23Z" transform="translate(-3.49)"/><path d="M344,1293.05h20c13.14,0,20.25,7,20.25,17.59,0,11.56-7,18.57-20.25,18.57H346V1362h-2Zm2,34.38h17.68c11.46,0,18.47-4.84,18.47-16.79,0-9.39-6.12-15.81-18.37-15.81H346Z" transform="translate(-3.49)"/><path d="M414,1293.05h2v31.52h41.68v-31.52h2v69h-2v-35.67H415.94V1362h-2Z" transform="translate(-3.49)"/><path d="M498.32,1293.05v69h-2v-69Z" transform="translate(-3.49)"/><path d="M577.35,1344.82c-3.56,11.36-10.18,18.27-23.71,18.27-18.57,0-26.38-16.49-26.38-34.87,0-19.26,8.6-36.06,27.07-36.06,13.44,0,20.94,7.81,23,18.38h-2c-2.66-10.18-9.88-16.5-20.94-16.5-16.3,0-25.09,14.33-25.09,34.08,0,17.29,7.51,33.1,24.4,33.1,11.46,0,17.88-5.73,21.53-16.4Z" transform="translate(-3.49)"/><path d="M642.44,1293.05h18.87c19.46,0,30.43,12.06,30.43,32.7,0,21.14-9.09,36.26-30.82,36.26H642.44Zm2,67.18h16.1c19.07,0,29.14-12.35,29.14-34.38,0-19.76-10.37-31-28.84-31h-16.4Z" transform="translate(-3.49)"/><path d="M758.81,1326.34H724.53v33.89h37.34l-.39,1.78H722.56v-69h38.13v1.78H724.53v29.74h34.28Z" transform="translate(-3.49)"/><path d="M787.65,1344.62c1.49,11.66,9.68,16.5,19.56,16.5,11.46,0,18.87-5.93,18.87-16.2,0-9.29-4.64-14.23-18.77-18.38-13.23-3.85-19.16-8.2-19.16-17.88,0-10.67,7.9-16.59,19-16.59,12.74,0,18.76,7.5,19.75,16.79h-2c-1.39-10.27-8.6-14.92-17.88-14.92-10.28,0-16.8,5.53-16.8,14.62,0,8.7,5.24,12.55,17.88,16.2,16.2,4.65,20.06,10.87,20.06,20.06,0,11.26-7.71,18.17-21,18.17-13.54,0-20.16-7.5-21.54-18.37Z" transform="translate(-3.49)"/><path d="M860.85,1293.05v69h-2v-69Z" transform="translate(-3.49)"/><path d="M941.26,1362h-1.78c-.19-2.18-.19-6-.19-15.41-3.56,11.65-10.87,16.39-22.72,16.39-18.58,0-26.78-15.51-26.78-35.06,0-18.58,8.8-35.86,28.06-35.86,12.55,0,21.73,6,24,19h-2c-2.37-11.26-10.08-17.09-22.23-17.09-17.28,0-25.78,15.51-25.78,33.89s7.61,33.29,24.8,33.29c15.8,0,22.62-10.57,22.62-26.28v-5.73H916.57v-1.78h24.69Z" transform="translate(-3.49)"/><path d="M974.55,1362v-69h3c37.24,58.78,39.72,62.93,42.28,66.88h.1c-.29-2.67-.29-20.94-.29-32.1v-34.78h2v69h-2.86c-37.64-59.67-40-63.62-42.38-67.38h-.1c.49,9.19.3,19.27.3,32V1362Z" transform="translate(-3.49)"/><path d="M1094.37,1326.34H1060.1v33.89h37.34l-.4,1.78h-38.92v-69h38.13v1.78H1060.1v29.74h34.27Z" transform="translate(-3.49)"/><path d="M1127.56,1327.43V1362h-2v-69h21.24c10.17,0,19.06,5,19.06,17.19,0,7.91-3.85,14.62-13.73,16.3,8.7,1.88,12.55,7.31,12.55,17.59v4.24c0,6.43.39,9.78,1.48,13.64h-2a46.15,46.15,0,0,1-1.48-13v-4.65c0-12.34-5.92-16.89-17.58-16.89Zm0-1.78h17.49c9.38,0,18.77-2.86,18.77-15.51,0-9.78-6.42-15.31-17.09-15.31h-19.17Z" transform="translate(-3.49)"/><polygon id="to_day" data-name="to day" class="cls-1" points="1228.75 1095.9 39.97 1095.9 117.58 952.81 552.96 150.06 634.35 0 715.74 150.06 916.16 519.57 753.37 519.57 634.35 300.13 634.31 300.22 633.81 299.31 280.27 951.1 281.28 951.1 280.34 952.81 988.34 952.81 908.68 805.94 521.83 805.94 599.43 662.85 993.88 662.85 1071.49 805.94 1151.15 952.81 1228.75 1095.9"/></g></g></svg>